# Blender 4.1.1
# www.blender.org
mtllib ShelfMetalFrame100cm.mtl
o ShelfMetalFrame100cm
v -0.209500 -0.495902 0.020000
v -0.209500 -0.497902 0.020000
v 0.204500 -0.497902 0.020000
v 0.202500 -0.495902 0.020000
v 0.202500 0.495902 0.020000
v 0.204500 0.497902 0.020000
v -0.209500 0.497902 0.020000
v -0.209500 0.495902 0.020000
v -0.209500 0.495902 -0.020000
v -0.209500 0.497902 -0.020000
v 0.204500 0.497902 -0.020000
v 0.202500 0.495902 -0.020000
v 0.202500 -0.495902 -0.020000
v 0.204500 -0.497902 -0.020000
v -0.209500 -0.497902 -0.020000
v -0.209500 -0.495902 -0.020000
v -0.185188 0.495902 -0.008604
v -0.185188 0.495902 0.008604
v -0.185188 -0.495902 0.008604
v -0.185188 -0.495902 -0.008604
v -0.209500 -0.481062 -0.015665
v -0.209500 -0.495072 -0.015665
v 0.202500 -0.495072 -0.015665
v 0.202500 -0.481062 -0.015665
v -0.209500 -0.481062 -0.015665
v 0.202500 -0.481062 -0.015665
v 0.202500 -0.481062 -0.017645
v -0.209500 -0.481062 -0.017645
v 0.202500 -0.495072 -0.015665
v -0.209500 -0.495072 -0.015665
v -0.209500 -0.495072 -0.017645
v 0.202500 -0.495072 -0.017645
v 0.202500 -0.481062 -0.015665
v 0.202500 -0.495072 -0.015665
v 0.202500 -0.495072 -0.017645
v 0.202500 -0.481062 -0.017645
v 0.202500 -0.495072 -0.017645
v -0.209500 -0.495072 -0.017645
v -0.209500 -0.481062 -0.017645
v 0.202500 -0.481062 -0.017645
v -0.209500 0.493829 -0.015665
v -0.209500 0.479819 -0.015665
v 0.202500 0.479819 -0.015665
v 0.202500 0.493829 -0.015665
v -0.209500 0.493829 -0.015665
v 0.202500 0.493829 -0.015665
v 0.202500 0.493829 -0.017645
v -0.209500 0.493829 -0.017645
v 0.202500 0.479819 -0.015665
v -0.209500 0.479819 -0.015665
v -0.209500 0.479819 -0.017645
v 0.202500 0.479819 -0.017645
v 0.202500 0.493829 -0.015665
v 0.202500 0.479819 -0.015665
v 0.202500 0.479819 -0.017645
v 0.202500 0.493829 -0.017645
v 0.202500 0.479819 -0.017645
v -0.209500 0.479819 -0.017645
v -0.209500 0.493829 -0.017645
v 0.202500 0.493829 -0.017645
v -0.209500 0.497902 -0.020000
v -0.209500 0.497902 0.020000
v 0.204500 0.497902 0.020000
v 0.204500 0.497902 -0.020000
v 0.206028 0.497763 0.020000
v 0.206028 0.497763 -0.020000
v 0.207278 0.497347 0.020000
v 0.207278 0.497347 -0.020000
v 0.208250 0.496652 0.020000
v 0.208250 0.496652 -0.020000
v -0.209500 -0.497902 0.020000
v -0.209500 -0.497902 -0.020000
v 0.204500 -0.497902 -0.020000
v 0.204500 -0.497902 0.020000
v 0.206028 -0.497763 -0.020000
v 0.206028 -0.497763 0.020000
v 0.207278 -0.497347 -0.020000
v 0.207278 -0.497347 0.020000
v 0.208250 -0.496652 -0.020000
v 0.208250 -0.496652 0.020000
v -0.209500 -0.495902 -0.020000
v -0.209500 -0.495902 0.020000
v 0.202500 -0.495902 0.020000
v 0.202500 -0.495902 -0.020000
v 0.204028 -0.495763 0.020000
v 0.204028 -0.495763 -0.020000
v 0.205278 -0.495347 0.020000
v 0.205278 -0.495347 -0.020000
v 0.206250 -0.494652 0.020000
v 0.206250 -0.494652 -0.020000
v -0.209500 0.495902 0.020000
v -0.209500 0.495902 -0.020000
v 0.202500 0.495902 -0.020000
v 0.202500 0.495902 0.020000
v 0.204028 0.495763 -0.020000
v 0.204028 0.495763 0.020000
v 0.205278 0.495347 -0.020000
v 0.205278 0.495347 0.020000
v 0.206250 0.494652 -0.020000
v 0.206250 0.494652 0.020000
v 0.208250 0.496652 -0.020000
v 0.208250 0.496652 0.020000
v 0.208944 0.495680 0.020000
v 0.208944 0.495680 -0.020000
v 0.209361 0.494430 0.020000
v 0.209361 0.494430 -0.020000
v 0.209500 0.492902 0.020000
v 0.209500 0.492902 -0.020000
v 0.209500 -0.492902 0.020000
v 0.209500 -0.492902 -0.020000
v 0.209361 -0.494430 0.020000
v 0.209361 -0.494430 -0.020000
v 0.208945 -0.495680 0.020000
v 0.208945 -0.495680 -0.020000
v 0.208250 -0.496652 0.020000
v 0.208250 -0.496652 -0.020000
v 0.206250 -0.494652 -0.020000
v 0.206250 -0.494652 0.020000
v 0.206945 -0.493680 0.020000
v 0.206945 -0.493680 -0.020000
v 0.207361 -0.492430 0.020000
v 0.207361 -0.492430 -0.020000
v 0.207500 -0.490902 0.020000
v 0.207500 -0.490902 -0.020000
v 0.207500 0.490902 0.020000
v 0.207500 0.490902 -0.020000
v 0.207361 0.492430 0.020000
v 0.207361 0.492430 -0.020000
v 0.206945 0.493680 0.020000
v 0.206945 0.493680 -0.020000
v 0.206250 0.494652 0.020000
v 0.206250 0.494652 -0.020000
v 0.204500 0.497902 0.020000
v 0.202500 0.495902 0.020000
v 0.204028 0.495763 0.020000
v 0.206028 0.497763 0.020000
v 0.205278 0.495347 0.020000
v 0.207278 0.497347 0.020000
v 0.206250 0.494652 0.020000
v 0.208250 0.496652 0.020000
v 0.208944 0.495680 0.020000
v 0.206945 0.493680 0.020000
v 0.209361 0.494430 0.020000
v 0.207361 0.492430 0.020000
v 0.209500 0.492902 0.020000
v 0.207500 0.490902 0.020000
v 0.207500 -0.490902 0.020000
v 0.209500 -0.492902 0.020000
v 0.207361 -0.492430 0.020000
v 0.209361 -0.494430 0.020000
v 0.206945 -0.493680 0.020000
v 0.208945 -0.495680 0.020000
v 0.206250 -0.494652 0.020000
v 0.208250 -0.496652 0.020000
v 0.207278 -0.497347 0.020000
v 0.205278 -0.495347 0.020000
v 0.206028 -0.497763 0.020000
v 0.204028 -0.495763 0.020000
v 0.204500 -0.497902 0.020000
v 0.202500 -0.495902 0.020000
v 0.204500 -0.497902 -0.020000
v 0.202500 -0.495902 -0.020000
v 0.204028 -0.495763 -0.020000
v 0.206028 -0.497763 -0.020000
v 0.205278 -0.495347 -0.020000
v 0.207278 -0.497347 -0.020000
v 0.206250 -0.494652 -0.020000
v 0.208250 -0.496652 -0.020000
v 0.208945 -0.495680 -0.020000
v 0.206945 -0.493680 -0.020000
v 0.209361 -0.494430 -0.020000
v 0.207361 -0.492430 -0.020000
v 0.209500 -0.492902 -0.020000
v 0.207500 -0.490902 -0.020000
v 0.207500 0.490902 -0.020000
v 0.209500 0.492902 -0.020000
v 0.207361 0.492430 -0.020000
v 0.209361 0.494430 -0.020000
v 0.206945 0.493680 -0.020000
v 0.208944 0.495680 -0.020000
v 0.206250 0.494652 -0.020000
v 0.208250 0.496652 -0.020000
v 0.207278 0.497347 -0.020000
v 0.205278 0.495347 -0.020000
v 0.206028 0.497763 -0.020000
v 0.204028 0.495763 -0.020000
v 0.204500 0.497902 -0.020000
v 0.202500 0.495902 -0.020000
v -0.185188 0.495902 -0.008604
v -0.185188 -0.495902 -0.008604
v -0.185327 -0.495902 -0.010132
v -0.185327 0.495902 -0.010132
v -0.185743 -0.495902 -0.011382
v -0.185743 0.495902 -0.011382
v -0.186438 -0.495902 -0.012354
v -0.186438 0.495902 -0.012354
v -0.185188 -0.495902 0.008604
v -0.185188 0.495902 0.008604
v -0.185327 0.495902 0.010132
v -0.185327 -0.495902 0.010132
v -0.185743 0.495902 0.011382
v -0.185743 -0.495902 0.011382
v -0.186438 0.495902 0.012354
v -0.186438 -0.495902 0.012354
v -0.186438 0.495902 -0.012354
v -0.186438 -0.495902 -0.012354
v -0.187410 -0.495902 -0.013049
v -0.187410 0.495902 -0.013049
v -0.188660 -0.495902 -0.013465
v -0.188660 0.495902 -0.013465
v -0.190188 -0.495902 -0.013604
v -0.190188 0.495902 -0.013604
v -0.203584 0.495902 -0.013604
v -0.203584 -0.495902 -0.013604
v -0.186438 -0.495902 0.012354
v -0.186438 0.495902 0.012354
v -0.187410 0.495902 0.013049
v -0.187410 -0.495902 0.013049
v -0.188660 0.495902 0.013465
v -0.188660 -0.495902 0.013465
v -0.190188 0.495902 0.013604
v -0.190188 -0.495902 0.013604
v -0.203584 -0.495902 0.013604
v -0.203584 0.495902 0.013604
v -0.203584 0.495902 0.013604
v -0.190188 0.495902 0.013604
v -0.188660 0.495902 0.013465
v -0.203584 0.495902 -0.013604
v -0.190188 0.495902 -0.013604
v -0.187410 0.495902 0.013049
v -0.186438 0.495902 0.012354
v -0.185327 0.495902 0.010132
v -0.185743 0.495902 0.011382
v -0.185188 0.495902 0.008604
v -0.185188 0.495902 -0.008604
v -0.187410 0.495902 -0.013049
v -0.188660 0.495902 -0.013465
v -0.185743 0.495902 -0.011382
v -0.185327 0.495902 -0.010132
v -0.186438 0.495902 -0.012354
v -0.203584 -0.495902 -0.013604
v -0.190188 -0.495902 -0.013604
v -0.188660 -0.495902 -0.013465
v -0.203584 -0.495902 0.013604
v -0.190188 -0.495902 0.013604
v -0.187410 -0.495902 -0.013049
v -0.186438 -0.495902 -0.012354
v -0.185327 -0.495902 -0.010132
v -0.185743 -0.495902 -0.011382
v -0.185188 -0.495902 -0.008604
v -0.185188 -0.495902 0.008604
v -0.187410 -0.495902 0.013049
v -0.188660 -0.495902 0.013465
v -0.185743 -0.495902 0.011382
v -0.185327 -0.495902 0.010132
v -0.186438 -0.495902 0.012354
vn -0.0000 -0.0000 1.0000
vn -0.0000 -0.0000 -1.0000
vn 1.0000 -0.0000 -0.0000
vn -0.0000 1.0000 -0.0000
vn -0.0000 -1.0000 -0.0000
vn 0.0453 0.9990 -0.0000
vn 0.2047 0.9788 -0.0000
vn 0.4538 0.8911 -0.0000
vn 0.5812 0.8137 -0.0000
vn 0.5813 0.8137 -0.0000
vn 0.0453 -0.9990 -0.0000
vn 0.2047 -0.9788 -0.0000
vn 0.4538 -0.8911 -0.0000
vn 0.5812 -0.8137 -0.0000
vn -0.0453 0.9990 -0.0000
vn -0.2047 0.9788 -0.0000
vn -0.4538 0.8911 -0.0000
vn -0.5812 0.8137 -0.0000
vn -0.5812 0.8138 -0.0000
vn -0.0453 -0.9990 -0.0000
vn -0.2047 -0.9788 -0.0000
vn -0.2048 -0.9788 -0.0000
vn -0.4538 -0.8911 -0.0000
vn -0.5812 -0.8138 -0.0000
vn 0.8137 0.5813 -0.0000
vn 0.8911 0.4538 -0.0000
vn 0.9788 0.2048 -0.0000
vn 0.9788 0.2047 -0.0000
vn 0.9990 0.0453 -0.0000
vn 0.9990 -0.0453 -0.0000
vn 0.9788 -0.2047 -0.0000
vn 0.9788 -0.2048 -0.0000
vn 0.8911 -0.4538 -0.0000
vn 0.8137 -0.5812 -0.0000
vn -0.8137 0.5812 -0.0000
vn -0.8911 0.4538 -0.0000
vn -0.9788 0.2047 -0.0000
vn -0.9990 0.0453 -0.0000
vn -0.9990 -0.0453 -0.0000
vn -0.9788 -0.2047 -0.0000
vn -0.9788 -0.2048 -0.0000
vn -0.8911 -0.4538 -0.0000
vn -0.8137 -0.5812 -0.0000
vn 0.9959 -0.0000 -0.0905
vn 0.9788 -0.0000 -0.2047
vn 0.8911 -0.0000 -0.4538
vn 0.8137 -0.0000 -0.5812
vn 0.9959 -0.0000 0.0905
vn 0.9788 -0.0000 0.2047
vn 0.8911 -0.0000 0.4538
vn 0.8137 -0.0000 0.5812
vn 0.5812 -0.0000 -0.8137
vn 0.4538 -0.0000 -0.8911
vn 0.2047 -0.0000 -0.9788
vn 0.0453 -0.0000 -0.9990
vn 0.5812 -0.0000 0.8137
vn 0.4538 -0.0000 0.8911
vn 0.2047 -0.0000 0.9788
vn 0.0453 -0.0000 0.9990
vn -0.0000 1.0000 0.0003
vn -0.0000 1.0000 -0.0003
vn -0.0000 1.0000 0.0001
vn -0.0000 -1.0000 0.0003
vn -0.0000 -1.0000 -0.0001
vn -0.0000 -1.0000 0.0001
vt 0.709473 1.480225
vt 0.709473 1.482178
vt 0.295410 1.482178
vt 0.297363 1.480225
vt 0.297363 0.488770
vt 0.295410 0.486816
vt 0.709473 0.486816
vt 0.709473 0.488770
vt 0.290283 0.488770
vt 0.290283 0.486816
vt 0.704102 0.486816
vt 0.702148 0.488770
vt 0.702148 1.480225
vt 0.704102 1.482178
vt 0.290283 1.482178
vt 0.290283 1.480225
vt 0.511230 0.491699
vt 0.511230 0.508789
vt -0.480225 0.508789
vt -0.480225 0.491699
vt 0.709473 1.465332
vt 0.709473 1.479492
vt 0.297363 1.479492
vt 0.297363 1.465332
vt 0.709473 0.484375
vt 0.297363 0.484375
vt 0.297363 0.482422
vt 0.709473 0.482422
vt 0.702148 0.484375
vt 0.290283 0.484375
vt 0.290283 0.482422
vt 0.702148 0.482422
vt -0.465332 0.484375
vt -0.479492 0.484375
vt -0.479492 0.482422
vt -0.465332 0.482422
vt 0.702148 1.479492
vt 0.290283 1.479492
vt 0.290283 1.465332
vt 0.702148 1.465332
vt 0.709473 0.490723
vt 0.709473 0.504883
vt 0.297363 0.504883
vt 0.297363 0.490723
vt 0.509277 0.484375
vt 0.495117 0.484375
vt 0.495117 0.482422
vt 0.509277 0.482422
vt 0.702148 0.504883
vt 0.290283 0.504883
vt 0.290283 0.490723
vt 0.702148 0.490723
vt 0.709473 0.480469
vt 0.709473 0.520020
vt 0.295410 0.520020
vt 0.295410 0.480469
vt 0.293945 0.520020
vt 0.293945 0.480469
vt 0.292480 0.520020
vt 0.292480 0.480469
vt 0.291748 0.520020
vt 0.291748 0.480469
vt 0.290283 0.520020
vt 0.290283 0.480469
vt 0.704102 0.480469
vt 0.704102 0.520020
vt 0.705566 0.480469
vt 0.705566 0.520020
vt 0.707031 0.480469
vt 0.707031 0.520020
vt 0.708008 0.480469
vt 0.708008 0.520020
vt 0.297363 0.520020
vt 0.297363 0.480469
vt 0.295898 0.520020
vt 0.295898 0.480469
vt 0.294678 0.520020
vt 0.294678 0.480469
vt 0.293701 0.520020
vt 0.293701 0.480469
vt 0.702148 0.480469
vt 0.702148 0.520020
vt 0.703613 0.480469
vt 0.703613 0.520020
vt 0.705078 0.480469
vt 0.705078 0.520020
vt 0.706055 0.480469
vt 0.706055 0.520020
vt 0.511719 0.480469
vt 0.511719 0.520020
vt 0.510742 0.520020
vt 0.510742 0.480469
vt 0.509766 0.520020
vt 0.509766 0.480469
vt 0.508301 0.520020
vt 0.508301 0.480469
vt -0.477295 0.520020
vt -0.477295 0.480469
vt -0.478760 0.520020
vt -0.478760 0.480469
vt -0.479980 0.520020
vt -0.479980 0.480469
vt -0.480957 0.520020
vt -0.480957 0.480469
vt 1.478516 0.480469
vt 1.478516 0.520020
vt 1.477539 0.520020
vt 1.477539 0.480469
vt 1.476562 0.520020
vt 1.476562 0.480469
vt 1.474609 0.520020
vt 1.474609 0.480469
vt 0.493408 0.520020
vt 0.493408 0.480469
vt 0.491943 0.520020
vt 0.491943 0.480469
vt 0.490723 0.520020
vt 0.490723 0.480469
vt 0.489746 0.520020
vt 0.489746 0.480469
vt 0.295898 0.488770
vt 0.293945 0.486816
vt 0.294678 0.489258
vt 0.292480 0.487305
vt 0.293701 0.490234
vt 0.291748 0.488281
vt 0.291016 0.489258
vt 0.292969 0.491211
vt 0.290527 0.490234
vt 0.292480 0.492188
vt 0.290283 0.491699
vt 0.292480 0.493652
vt 0.292480 1.475342
vt 0.290283 1.477295
vt 0.292480 1.476807
vt 0.290527 1.478760
vt 0.292969 1.478027
vt 0.291016 1.479980
vt 0.293701 1.479004
vt 0.291748 1.480957
vt 0.292480 1.481689
vt 0.294678 1.479736
vt 0.293945 1.482178
vt 0.295898 1.480225
vt 0.703613 1.480225
vt 0.705566 1.482178
vt 0.705078 1.479736
vt 0.707031 1.481689
vt 0.706055 1.479004
vt 0.708008 1.480957
vt 0.708496 1.479980
vt 0.706543 1.478027
vt 0.708984 1.478760
vt 0.707031 1.476807
vt 0.709473 1.477295
vt 0.707031 1.475342
vt 0.707031 0.493652
vt 0.709473 0.491699
vt 0.707031 0.492188
vt 0.708984 0.490234
vt 0.706543 0.491211
vt 0.708496 0.489258
vt 0.706055 0.490234
vt 0.708008 0.488281
vt 0.707031 0.487305
vt 0.705078 0.489258
vt 0.705566 0.486816
vt 0.703613 0.488770
vt -0.480225 0.490234
vt 0.511230 0.490234
vt -0.480225 0.488770
vt 0.511230 0.488770
vt -0.480225 0.487793
vt 0.511230 0.487793
vt 0.511230 0.510254
vt -0.480225 0.510254
vt 0.511230 0.511475
vt -0.480225 0.511475
vt 0.511230 0.512451
vt -0.480225 0.512451
vt 0.313477 0.488770
vt 0.313477 1.480225
vt 0.312500 1.480225
vt 0.312500 0.488770
vt 0.311279 1.480225
vt 0.311279 0.488770
vt 0.309570 1.480225
vt 0.309570 0.488770
vt 0.296387 0.488770
vt 0.296387 1.480225
vt 0.686035 1.480225
vt 0.686035 0.488770
vt 0.687012 0.488770
vt 0.687012 1.480225
vt 0.688477 0.488770
vt 0.688477 1.480225
vt 0.689941 0.488770
vt 0.689941 1.480225
vt 0.703125 1.480225
vt 0.703125 0.488770
vt 0.703125 0.513672
vt 0.689941 0.513672
vt 0.688477 0.513672
vt 0.703125 0.486816
vt 0.689941 0.486816
vt 0.687012 0.513184
vt 0.686035 0.512451
vt 0.685059 0.510254
vt 0.685547 0.511475
vt 0.685059 0.508789
vt 0.685059 0.491699
vt 0.687012 0.487305
vt 0.688477 0.486816
vt 0.685547 0.488770
vt 0.685059 0.490234
vt 0.686035 0.487793
vt 0.296387 0.486816
vt 0.309570 0.486816
vt 0.311279 0.486816
vt 0.296387 0.513672
vt 0.309570 0.513672
vt 0.312500 0.487305
vt 0.313477 0.487793
vt 0.314453 0.490234
vt 0.314209 0.488770
vt 0.314697 0.491699
vt 0.314697 0.508789
vt 0.312500 0.513184
vt 0.311279 0.513672
vt 0.314209 0.511475
vt 0.314453 0.510254
vt 0.313477 0.512451
s 1
usemtl M_MetalChrome
f 1/1/1 2/2/1 3/3/1
f 3/3/1 4/4/1 1/1/1
f 5/5/1 6/6/1 7/7/1
f 7/7/1 8/8/1 5/5/1
f 9/9/2 10/10/2 11/11/2
f 11/11/2 12/12/2 9/9/2
f 13/13/2 14/14/2 15/15/2
f 15/15/2 16/16/2 13/13/2
f 17/17/3 18/18/3 19/19/3
f 19/19/3 20/20/3 17/17/3
f 21/21/1 22/22/1 23/23/1
f 23/23/1 24/24/1 21/21/1
f 25/25/4 26/26/4 27/27/4
f 27/27/4 28/28/4 25/25/4
f 29/29/5 30/30/5 31/31/5
f 31/31/5 32/32/5 29/29/5
f 33/33/3 34/34/3 35/35/3
f 35/35/3 36/36/3 33/33/3
f 37/37/2 38/38/2 39/39/2
f 39/39/2 40/40/2 37/37/2
f 41/41/1 42/42/1 43/43/1
f 43/43/1 44/44/1 41/41/1
f 45/25/4 46/26/4 47/27/4
f 47/27/4 48/28/4 45/25/4
f 49/29/5 50/30/5 51/31/5
f 51/31/5 52/32/5 49/29/5
f 53/45/3 54/46/3 55/47/3
f 55/47/3 56/48/3 53/45/3
f 57/49/2 58/50/2 59/51/2
f 59/51/2 60/52/2 57/49/2
f 61/53/4 62/54/4 63/55/6
f 63/55/6 64/56/6 61/53/4
f 64/56/6 63/55/6 65/57/7
f 65/57/7 66/58/7 64/56/6
f 66/58/7 65/57/7 67/59/8
f 67/59/8 68/60/8 66/58/7
f 68/60/8 67/59/8 69/61/9
f 69/61/9 70/62/10 68/60/8
f 71/63/5 72/64/5 73/65/11
f 73/65/11 74/66/11 71/63/5
f 74/66/11 73/65/11 75/67/12
f 75/67/12 76/68/12 74/66/11
f 76/68/12 75/67/12 77/69/13
f 77/69/13 78/70/13 76/68/12
f 78/70/13 77/69/13 79/71/14
f 79/71/14 80/72/14 78/70/13
f 81/53/4 82/54/4 83/73/15
f 83/73/15 84/74/15 81/53/4
f 84/74/15 83/73/15 85/75/16
f 85/75/16 86/76/16 84/74/15
f 86/76/16 85/75/16 87/77/17
f 87/77/17 88/78/17 86/76/16
f 88/78/17 87/77/17 89/79/18
f 89/79/18 90/80/19 88/78/17
f 91/63/5 92/64/5 93/81/20
f 93/81/20 94/82/20 91/63/5
f 94/82/20 93/81/20 95/83/21
f 95/83/21 96/84/22 94/82/20
f 96/84/22 95/83/21 97/85/23
f 97/85/23 98/86/23 96/84/22
f 98/86/23 97/85/23 99/87/24
f 99/87/24 100/88/24 98/86/23
f 101/89/25 102/90/25 103/91/26
f 103/91/26 104/92/26 101/89/25
f 104/92/26 103/91/26 105/93/27
f 105/93/27 106/94/28 104/92/26
f 106/94/28 105/93/27 107/95/29
f 107/95/29 108/96/29 106/94/28
f 108/96/29 107/95/29 109/97/30
f 109/97/30 110/98/30 108/96/29
f 110/98/30 109/97/30 111/99/31
f 111/99/31 112/100/32 110/98/30
f 112/100/32 111/99/31 113/101/33
f 113/101/33 114/102/33 112/100/32
f 114/102/33 113/101/33 115/103/34
f 115/103/34 116/104/34 114/102/33
f 117/105/35 118/106/35 119/107/36
f 119/107/36 120/108/36 117/105/35
f 120/108/36 119/107/36 121/109/37
f 121/109/37 122/110/37 120/108/36
f 122/110/37 121/109/37 123/111/38
f 123/111/38 124/112/38 122/110/37
f 124/112/38 123/111/38 125/113/39
f 125/113/39 126/114/39 124/112/38
f 126/114/39 125/113/39 127/115/40
f 127/115/40 128/116/41 126/114/39
f 128/116/41 127/115/40 129/117/42
f 129/117/42 130/118/42 128/116/41
f 130/118/42 129/117/42 131/119/43
f 131/119/43 132/120/43 130/118/42
f 133/6/1 134/5/1 135/121/1
f 135/121/1 136/122/1 133/6/1
f 136/122/1 135/121/1 137/123/1
f 137/123/1 138/124/1 136/122/1
f 138/124/1 137/123/1 139/125/1
f 139/125/1 140/126/1 138/124/1
f 141/127/1 140/126/1 139/125/1
f 139/125/1 142/128/1 141/127/1
f 143/129/1 141/127/1 142/128/1
f 142/128/1 144/130/1 143/129/1
f 145/131/1 143/129/1 144/130/1
f 144/130/1 146/132/1 145/131/1
f 145/131/1 146/132/1 147/133/1
f 147/133/1 148/134/1 145/131/1
f 148/134/1 147/133/1 149/135/1
f 149/135/1 150/136/1 148/134/1
f 150/136/1 149/135/1 151/137/1
f 151/137/1 152/138/1 150/136/1
f 152/138/1 151/137/1 153/139/1
f 153/139/1 154/140/1 152/138/1
f 155/141/1 154/140/1 153/139/1
f 153/139/1 156/142/1 155/141/1
f 157/143/1 155/141/1 156/142/1
f 156/142/1 158/144/1 157/143/1
f 159/3/1 157/143/1 158/144/1
f 158/144/1 160/4/1 159/3/1
f 161/14/2 162/13/2 163/145/2
f 163/145/2 164/146/2 161/14/2
f 164/146/2 163/145/2 165/147/2
f 165/147/2 166/148/2 164/146/2
f 166/148/2 165/147/2 167/149/2
f 167/149/2 168/150/2 166/148/2
f 169/151/2 168/150/2 167/149/2
f 167/149/2 170/152/2 169/151/2
f 171/153/2 169/151/2 170/152/2
f 170/152/2 172/154/2 171/153/2
f 173/155/2 171/153/2 172/154/2
f 172/154/2 174/156/2 173/155/2
f 173/155/2 174/156/2 175/157/2
f 175/157/2 176/158/2 173/155/2
f 176/158/2 175/157/2 177/159/2
f 177/159/2 178/160/2 176/158/2
f 178/160/2 177/159/2 179/161/2
f 179/161/2 180/162/2 178/160/2
f 180/162/2 179/161/2 181/163/2
f 181/163/2 182/164/2 180/162/2
f 183/165/2 182/164/2 181/163/2
f 181/163/2 184/166/2 183/165/2
f 185/167/2 183/165/2 184/166/2
f 184/166/2 186/168/2 185/167/2
f 187/11/2 185/167/2 186/168/2
f 186/168/2 188/12/2 187/11/2
f 189/17/44 190/20/44 191/169/45
f 191/169/45 192/170/45 189/17/44
f 192/170/45 191/169/45 193/171/46
f 193/171/46 194/172/46 192/170/45
f 194/172/46 193/171/46 195/173/47
f 195/173/47 196/174/47 194/172/46
f 197/19/48 198/18/48 199/175/49
f 199/175/49 200/176/49 197/19/48
f 200/176/49 199/175/49 201/177/50
f 201/177/50 202/178/50 200/176/49
f 202/178/50 201/177/50 203/179/51
f 203/179/51 204/180/51 202/178/50
f 205/181/52 206/182/52 207/183/53
f 207/183/53 208/184/53 205/181/52
f 208/184/53 207/183/53 209/185/54
f 209/185/54 210/186/54 208/184/53
f 210/186/54 209/185/54 211/187/55
f 211/187/55 212/188/55 210/186/54
f 213/189/2 212/188/55 211/187/55
f 211/187/55 214/190/2 213/189/2
f 215/191/56 216/192/56 217/193/57
f 217/193/57 218/194/57 215/191/56
f 218/194/57 217/193/57 219/195/58
f 219/195/58 220/196/58 218/194/57
f 220/196/58 219/195/58 221/197/59
f 221/197/59 222/198/59 220/196/58
f 223/199/1 222/198/59 221/197/59
f 221/197/59 224/200/1 223/199/1
f 225/201/4 226/202/60 227/203/4
f 228/204/4 225/201/4 229/205/4
f 225/201/4 227/203/4 229/205/4
f 227/203/4 230/206/61 231/207/4
f 227/203/4 231/207/4 232/208/4
f 231/207/4 233/209/4 232/208/4
f 227/203/4 232/208/4 229/205/4
f 232/208/4 234/210/4 235/211/4
f 236/212/62 237/213/4 229/205/4
f 232/208/4 235/211/4 238/214/4
f 232/208/4 238/214/4 229/205/4
f 238/214/4 236/212/62 229/205/4
f 235/211/4 239/215/4 238/214/4
f 238/214/4 240/216/4 236/212/62
f 241/217/5 242/218/63 243/219/5
f 244/220/5 241/217/5 245/221/5
f 241/217/5 243/219/5 245/221/5
f 243/219/5 246/222/63 247/223/5
f 243/219/5 247/223/5 248/224/5
f 247/223/5 249/225/64 248/224/5
f 243/219/5 248/224/5 245/221/5
f 248/224/5 250/226/5 251/227/5
f 252/228/5 253/229/5 245/221/5
f 248/224/5 251/227/5 254/230/5
f 248/224/5 254/230/5 245/221/5
f 254/230/5 252/228/5 245/221/5
f 251/227/5 255/231/65 254/230/5
f 254/230/5 256/232/64 252/228/5
